<mxfile host="localhost" modified="2020-05-17T19:56:25.455Z" agent="5.0 (Macintosh; Intel Mac OS X 10_15_4) AppleWebKit/537.36 (KHTML, like Gecko) Code/1.45.1 Chrome/78.0.3904.130 Electron/7.2.4 Safari/537.36" etag="OQ5KMmfKTrnmpQ9owJZj" version="13.0.9">
    <diagram id="6hGFLwfOUW9BJ-s0fimq" name="Page-1">
        <mxGraphModel dx="355" dy="447" grid="1" gridSize="10" guides="1" tooltips="1" connect="1" arrows="1" fold="1" page="1" pageScale="1" pageWidth="827" pageHeight="1169" math="0" shadow="0">
            <root>
                <mxCell id="0"/>
                <mxCell id="1" parent="0"/>
                <mxCell id="2" value="" style="rounded=0;whiteSpace=wrap;html=1;" vertex="1" parent="1">
                    <mxGeometry x="40" y="70" width="280" height="40" as="geometry"/>
                </mxCell>
                <mxCell id="3" value="French" style="text;html=1;strokeColor=none;fillColor=none;align=center;verticalAlign=middle;whiteSpace=wrap;rounded=0;fontSize=15;" vertex="1" parent="1">
                    <mxGeometry x="150" y="75" width="60" height="30" as="geometry"/>
                </mxCell>
                <mxCell id="4" value="" style="rounded=0;whiteSpace=wrap;html=1;fillColor=#f5f5f5;strokeColor=#666666;fontColor=#333333;" vertex="1" parent="1">
                    <mxGeometry x="135" y="380" width="90" height="40" as="geometry"/>
                </mxCell>
                <mxCell id="5" value="Start Practicing" style="text;html=1;strokeColor=none;fillColor=none;align=center;verticalAlign=middle;whiteSpace=wrap;rounded=0;fontColor=#000000;" vertex="1" parent="1">
                    <mxGeometry x="145" y="390" width="70" height="20" as="geometry"/>
                </mxCell>
                <mxCell id="6" value="Words to practice" style="text;html=1;strokeColor=none;fillColor=none;align=center;verticalAlign=middle;whiteSpace=wrap;rounded=0;fontColor=#FFFFFF;fontSize=19;" vertex="1" parent="1">
                    <mxGeometry x="75" y="140" width="210" height="40" as="geometry"/>
                </mxCell>
                <mxCell id="8" value="Word" style="text;html=1;strokeColor=none;fillColor=none;align=center;verticalAlign=middle;whiteSpace=wrap;rounded=0;fontColor=#FFFFFF;fontSize=17;" vertex="1" parent="1">
                    <mxGeometry x="45" y="190" width="90" height="40" as="geometry"/>
                </mxCell>
                <mxCell id="9" value="Guessed correctly: 123" style="text;html=1;strokeColor=none;fillColor=none;align=center;verticalAlign=middle;whiteSpace=wrap;rounded=0;fontColor=#FFFFFF;" vertex="1" parent="1">
                    <mxGeometry x="165" y="190" width="150" height="20" as="geometry"/>
                </mxCell>
                <mxCell id="10" value="Guessed incorrectly: 123" style="text;html=1;strokeColor=none;fillColor=none;align=center;verticalAlign=middle;whiteSpace=wrap;rounded=0;fontColor=#FFFFFF;" vertex="1" parent="1">
                    <mxGeometry x="165" y="210" width="150" height="20" as="geometry"/>
                </mxCell>
                <mxCell id="13" value="Word" style="text;html=1;strokeColor=none;fillColor=none;align=center;verticalAlign=middle;whiteSpace=wrap;rounded=0;fontColor=#FFFFFF;fontSize=17;" vertex="1" parent="1">
                    <mxGeometry x="45" y="250" width="90" height="40" as="geometry"/>
                </mxCell>
                <mxCell id="14" value="Guessed correctly: 123" style="text;html=1;strokeColor=none;fillColor=none;align=center;verticalAlign=middle;whiteSpace=wrap;rounded=0;fontColor=#FFFFFF;" vertex="1" parent="1">
                    <mxGeometry x="165" y="250" width="150" height="20" as="geometry"/>
                </mxCell>
                <mxCell id="15" value="Guessed incorrectly: 123" style="text;html=1;strokeColor=none;fillColor=none;align=center;verticalAlign=middle;whiteSpace=wrap;rounded=0;fontColor=#FFFFFF;" vertex="1" parent="1">
                    <mxGeometry x="165" y="270" width="150" height="20" as="geometry"/>
                </mxCell>
                <mxCell id="16" value="Word" style="text;html=1;strokeColor=none;fillColor=none;align=center;verticalAlign=middle;whiteSpace=wrap;rounded=0;fontColor=#FFFFFF;fontSize=17;" vertex="1" parent="1">
                    <mxGeometry x="45" y="310" width="90" height="40" as="geometry"/>
                </mxCell>
                <mxCell id="17" value="Guessed correctly: 123" style="text;html=1;strokeColor=none;fillColor=none;align=center;verticalAlign=middle;whiteSpace=wrap;rounded=0;fontColor=#FFFFFF;" vertex="1" parent="1">
                    <mxGeometry x="165" y="310" width="150" height="20" as="geometry"/>
                </mxCell>
                <mxCell id="18" value="Guessed incorrectly: 123" style="text;html=1;strokeColor=none;fillColor=none;align=center;verticalAlign=middle;whiteSpace=wrap;rounded=0;fontColor=#FFFFFF;" vertex="1" parent="1">
                    <mxGeometry x="165" y="330" width="150" height="20" as="geometry"/>
                </mxCell>
                <mxCell id="19" value="" style="shape=link;html=1;fontSize=19;fontColor=#FFFFFF;labelBackgroundColor=#FFFFFF;" edge="1" parent="1">
                    <mxGeometry width="50" height="50" relative="1" as="geometry">
                        <mxPoint x="20" y="240" as="sourcePoint"/>
                        <mxPoint x="314.1666564941406" y="240" as="targetPoint"/>
                    </mxGeometry>
                </mxCell>
                <mxCell id="20" value="" style="shape=link;html=1;fontSize=19;fontColor=#FFFFFF;labelBackgroundColor=#FFFFFF;" edge="1" parent="1">
                    <mxGeometry width="50" height="50" relative="1" as="geometry">
                        <mxPoint x="20.83" y="300" as="sourcePoint"/>
                        <mxPoint x="314.9966564941406" y="300" as="targetPoint"/>
                    </mxGeometry>
                </mxCell>
                <mxCell id="21" value="" style="shape=link;html=1;fontSize=19;fontColor=#FFFFFF;labelBackgroundColor=#FFFFFF;" edge="1" parent="1">
                    <mxGeometry width="50" height="50" relative="1" as="geometry">
                        <mxPoint x="20.829999999999984" y="360" as="sourcePoint"/>
                        <mxPoint x="314.99665649414055" y="360" as="targetPoint"/>
                    </mxGeometry>
                </mxCell>
                <mxCell id="22" value="Language Learning App" style="text;html=1;strokeColor=none;fillColor=none;align=center;verticalAlign=middle;whiteSpace=wrap;rounded=0;fontSize=19;fontColor=#FFFFFF;" vertex="1" parent="1">
                    <mxGeometry x="65" y="20" width="230" height="20" as="geometry"/>
                </mxCell>
            </root>
        </mxGraphModel>
    </diagram>
</mxfile>